<svg width="55" height="53" viewBox="0 0 55 53" fill="none" xmlns="http://www.w3.org/2000/svg">
<rect width="55" height="53" rx="8" fill="white"/>
<g clip-path="url(#clip0_109_166)">
<path d="M26.9641 16.5798C26.6641 16.7251 16.2016 24.2345 16.1126 24.361C15.9251 24.6517 15.986 25.0126 16.2673 25.2704C16.4079 25.4017 26.6032 32.686 26.8751 32.8548C27.222 33.0657 27.6907 32.9345 27.8688 32.5782C27.9438 32.4282 27.9532 32.2267 27.9532 30.4454V28.472L28.272 28.4907C28.7876 28.5142 29.6735 28.636 30.297 28.7626C31.5532 29.0204 33.0954 29.6485 34.1173 30.3142C36.3016 31.7438 37.8907 33.9704 38.5001 36.4454C38.6782 37.1626 38.7391 37.2845 38.9923 37.4063C39.236 37.5235 39.3579 37.5235 39.6063 37.4017C39.7563 37.3313 39.8313 37.2517 39.911 37.0923C40.0095 36.886 40.0141 36.8438 39.986 35.9813C39.897 33.347 39.4657 31.1063 38.6782 29.1563C37.9235 27.3001 36.9954 25.9032 35.6126 24.5626C34.422 23.4095 33.0673 22.547 31.4548 21.9142C30.4938 21.5392 29.111 21.1876 28.2954 21.1126L27.9579 21.0798L27.9438 19.0267C27.9298 17.0392 27.9251 16.9735 27.8313 16.847C27.597 16.5329 27.2688 16.4298 26.9641 16.5798Z" fill="black"/>
</g>
<defs>
<clipPath id="clip0_109_166">
<rect width="24" height="24" fill="white" transform="translate(16 15)"/>
</clipPath>
</defs>
</svg>
