<svg width="24" height="24" viewBox="0 0 24 24" fill="none" xmlns="http://www.w3.org/2000/svg">
<path d="M6.00623 3.01921C5.33034 3.04268 5.01118 3.07554 4.86567 3.12717C4.15224 3.39471 3.40595 4.32874 2.58456 5.97622C1.34543 8.46854 0.397315 11.6321 0.0593724 14.4248C-0.029807 15.1711 -0.0157261 16.8326 0.0828406 17.3818C0.186101 17.9309 0.402009 18.5928 0.594449 18.926C0.951166 19.5456 1.5942 20.0478 2.256 20.2168C2.62211 20.3106 3.20412 20.3153 3.55614 20.2214C4.75302 19.9117 6.20806 18.5223 7.71472 16.2412L8.10899 15.6451H11.9906H15.8723L16.2008 16.1521C17.7028 18.4519 19.2329 19.9164 20.4533 20.2261C20.8804 20.3388 21.5798 20.2965 22.0116 20.1323C23.246 19.6629 23.9031 18.3909 23.9923 16.3022C24.105 13.5471 22.9691 9.07403 21.331 5.83541C20.6129 4.42262 19.8854 3.50266 19.247 3.20227L18.9279 3.05207L17.6559 3.0286C16.1821 3.00513 15.8582 3.03799 15.3701 3.28206C15.004 3.46511 14.5581 3.91101 14.4126 4.23018L14.3234 4.42731H11.9953H9.66728L9.53586 4.17385C9.37158 3.85938 8.94915 3.44634 8.62059 3.28206C8.11368 3.02391 7.51759 2.96289 6.00623 3.01921ZM13.6287 6.03254C13.5208 6.23437 13.0936 6.61455 12.8308 6.74128C12.2769 7.01351 11.709 7.01821 11.1599 6.74597C10.9017 6.62394 10.4558 6.22967 10.3526 6.03254L10.2962 5.92928H11.9906H13.685L13.6287 6.03254ZM6.86986 8.1306C7.12332 8.31365 7.17495 8.46854 7.19372 9.10688L7.2125 9.6842H7.76166C8.42346 9.6842 8.6159 9.76399 8.78957 10.1066C8.92099 10.3695 8.92099 10.5009 8.78957 10.7637C8.6159 11.1064 8.42346 11.1862 7.76166 11.1862H7.2125L7.19372 11.7588C7.17495 12.4018 7.12332 12.5567 6.86517 12.7445C6.64457 12.8994 6.20806 12.8994 5.99684 12.7398C5.74808 12.552 5.70114 12.3924 5.70114 11.7541V11.1862H5.15199C4.69201 11.1862 4.56997 11.1721 4.40569 11.0876C3.86592 10.8295 3.85184 10.0832 4.37753 9.78746C4.54181 9.69828 4.63099 9.6842 5.13321 9.6842H5.70114V9.11627C5.70114 8.44508 5.75747 8.28549 6.04847 8.10713C6.29254 7.95694 6.63987 7.96632 6.86986 8.1306ZM17.8906 8.06958C17.9797 8.11183 18.1018 8.22447 18.1675 8.31835C18.3271 8.55303 18.3318 9.07872 18.1722 9.3134C18.022 9.54339 17.6793 9.70298 17.4259 9.66073C16.8908 9.56686 16.6139 8.83465 16.919 8.33243C17.1114 8.01795 17.5338 7.90531 17.8906 8.06958ZM16.4355 9.80624C16.6796 9.98929 16.7547 10.1395 16.7547 10.4352C16.7547 10.7309 16.6796 10.8811 16.4308 11.0641C16.3276 11.1439 16.2337 11.1627 15.938 11.1627C15.6141 11.1627 15.5578 11.1486 15.4076 11.036C14.9711 10.7027 15.0227 10.0362 15.4968 9.77807C15.7362 9.65135 16.2431 9.66543 16.4355 9.80624ZM19.5756 9.77338C20.1341 10.0268 20.1247 10.8248 19.5662 11.0923C18.9983 11.3692 18.3271 11.0172 18.3271 10.4493C18.3271 10.1348 18.5148 9.84848 18.7964 9.73583C18.9889 9.66073 19.3691 9.67951 19.5756 9.77338ZM17.9281 11.3223C18.1816 11.4678 18.2801 11.6743 18.2801 12.0498C18.2801 12.3267 18.2614 12.4159 18.1675 12.552C17.8671 12.9885 17.1912 12.9838 16.919 12.5379C16.4684 11.7963 17.2053 10.9139 17.9281 11.3223Z" fill="black"/>
</svg>
