<svg width="24" height="24" viewBox="0 0 24 24" fill="none" xmlns="http://www.w3.org/2000/svg">
<g clip-path="url(#clip0_109_125)">
<path d="M11.2221 0.914004C10.8659 0.989004 10.4393 1.16244 10.0878 1.364C9.88619 1.48119 8.61588 2.72338 5.02994 6.30463C-0.285682 11.6062 0.0283802 11.2593 0.0236927 11.9062C0.0236927 12.3328 0.145568 12.6046 0.469005 12.9093C0.876818 13.289 1.49088 13.3687 1.99244 13.1109C2.17057 13.0171 3.32838 11.8874 6.84401 8.36713C9.44557 5.76557 11.5362 3.70307 11.6346 3.6515C11.7331 3.60463 11.8971 3.56244 12.0003 3.56244C12.1034 3.56244 12.2674 3.60463 12.3659 3.6515C12.4643 3.70307 14.5549 5.76557 17.1565 8.36713C20.6721 11.8874 21.8299 13.0171 22.0081 13.1109C22.5096 13.3687 23.1237 13.289 23.5315 12.9093C23.8456 12.614 23.9768 12.3328 23.9768 11.9296C23.9768 11.2968 24.019 11.3531 21.8862 9.21088L19.969 7.28432V5.17025C19.969 3.76869 19.9503 2.96713 19.9174 2.80307C19.7768 2.15619 19.2518 1.73432 18.5862 1.73432C18.0331 1.73432 17.5831 2.02025 17.3346 2.5265C17.2362 2.72338 17.2268 2.81713 17.2128 3.62338L17.194 4.50932L15.6893 3.014C14.1424 1.48588 13.9643 1.33588 13.3596 1.09213C12.7503 0.848379 11.8643 0.773379 11.2221 0.914004Z" fill="#D9D9D9"/>
<path d="M11.7656 6.23906C11.625 6.29531 3.49219 14.4047 3.39375 14.5875C3.3375 14.6953 3.32812 15.2109 3.32812 17.8313C3.32812 19.8984 3.34688 21.0328 3.37969 21.1969C3.51562 21.8484 4.03594 22.5516 4.62188 22.8609C5.17969 23.1562 5.18906 23.1562 7.57969 23.1562H9.75V20.1094V17.0625H12H14.25V20.1094V23.1562H16.4203C18.8109 23.1562 18.8203 23.1562 19.3781 22.8609C19.9641 22.5516 20.4844 21.8484 20.6203 21.1969C20.6531 21.0328 20.6719 19.8984 20.6719 17.8313C20.6719 15.2109 20.6625 14.6953 20.6063 14.5875C20.4984 14.3906 12.3703 6.29063 12.2203 6.23438C12.0609 6.17813 11.9203 6.17813 11.7656 6.23906Z" fill="#98A2B2"/>
</g>
<defs>
<clipPath id="clip0_109_125">
<rect width="24" height="24" fill="white"/>
</clipPath>
</defs>
</svg>
