<svg width="24" height="24" viewBox="0 0 24 24" fill="none" xmlns="http://www.w3.org/2000/svg">
<g clip-path="url(#clip0_109_114)">
<path d="M11.5971 0.745501C11.3956 0.867376 11.3159 0.989251 10.8752 1.87519C10.6643 2.30175 10.4815 2.65331 10.4768 2.66269C10.4674 2.67206 10.0549 2.73769 9.55337 2.81269C8.57368 2.95331 8.37212 3.01894 8.21274 3.25331C8.02524 3.52519 8.0018 3.69394 8.09555 4.05488C8.10962 4.10644 8.43774 4.47206 8.83149 4.86581L9.5393 5.583L9.37993 6.51113C9.2768 7.1205 9.23462 7.50488 9.25337 7.61269C9.29087 7.81894 9.52993 8.10019 9.73618 8.18456C10.0549 8.3205 10.2096 8.27831 11.1331 7.80019L12.0002 7.35488L12.8674 7.80019C13.5893 8.17519 13.7721 8.25019 13.9502 8.25019C14.2081 8.25019 14.3768 8.16581 14.569 7.95019C14.7893 7.69706 14.7987 7.55644 14.6206 6.51113L14.4612 5.583L15.1737 4.86581C15.6612 4.37363 15.8956 4.10644 15.9143 4.008C15.9331 3.92831 15.9565 3.83456 15.9659 3.79706C16.0221 3.58144 15.769 3.14081 15.5159 3.02363C15.4268 2.97675 14.944 2.883 14.4471 2.81269C13.9456 2.73769 13.5331 2.67206 13.5237 2.66269C13.519 2.65331 13.3362 2.30175 13.1252 1.87519C12.6987 1.01738 12.5768 0.829875 12.3752 0.726751C12.1831 0.628313 11.7752 0.637688 11.5971 0.745501Z" fill="#D9D9D9"/>
<path d="M8.82187 10.6922C8.33906 10.7766 7.90781 11.1 7.68281 11.5547L7.57031 11.7891L7.55625 17.5922L7.54688 23.3906H12H16.4531V17.6578C16.4531 11.325 16.4719 11.7281 16.1531 11.2969C15.9797 11.0578 15.7078 10.8562 15.4125 10.7437C15.2344 10.6734 14.8734 10.6641 12.1406 10.6547C10.4531 10.6547 8.95781 10.6687 8.82187 10.6922ZM12.5203 13.7953C12.8391 14.0062 12.8437 14.0437 12.8437 15.7875C12.8437 17.5172 12.8344 17.5687 12.5437 17.7797C12.3422 17.925 11.9391 17.925 11.7375 17.7797C11.475 17.5922 11.4375 17.4422 11.4375 16.5703C11.4375 15.8437 11.4328 15.7875 11.3578 15.8203C10.9828 15.9703 10.7437 15.9328 10.5 15.6844C10.2984 15.4687 10.2516 15.1125 10.4016 14.8734C10.4859 14.7375 11.4047 14.0062 11.7703 13.7859C11.9906 13.65 12.3141 13.6547 12.5203 13.7953Z" fill="#98A2B2"/>
<path d="M0.914063 14.3392C0.590625 14.4892 0.271875 14.808 0.126563 15.1314C0.0234375 15.3517 0.0234375 15.3658 0.0234375 18.7736V22.1955L0.145313 22.4533C0.379688 22.9502 0.829688 23.2689 1.39688 23.3486C1.57031 23.3721 2.7 23.3861 3.91406 23.3814L6.11719 23.3674L6.13125 18.783L6.14063 14.2033H3.67031H1.19531L0.914063 14.3392Z" fill="#98A2B2"/>
<path d="M17.883 17.0252C17.8689 17.058 17.8643 18.4971 17.8689 20.2267L17.883 23.3674L20.0861 23.3814C21.3002 23.3861 22.4299 23.3721 22.6033 23.3486C23.1705 23.2689 23.6205 22.9502 23.8549 22.4533L23.9768 22.1955V20.1799V18.1642L23.8549 17.9064C23.6252 17.4189 23.1986 17.1049 22.6596 17.0158C22.2236 16.9455 17.9111 16.9549 17.883 17.0252Z" fill="#98A2B2"/>
</g>
<defs>
<clipPath id="clip0_109_114">
<rect width="24" height="24" fill="white"/>
</clipPath>
</defs>
</svg>
