<?xml version="1.0" standalone="no"?>
<!DOCTYPE svg PUBLIC "-//W3C//DTD SVG 20010904//EN"
 "http://www.w3.org/TR/2001/REC-SVG-20010904/DTD/svg10.dtd">
<svg version="1.0" xmlns="http://www.w3.org/2000/svg"
 width="512.000000pt" height="512.000000pt" viewBox="0 0 512.000000 512.000000"
 preserveAspectRatio="xMidYMid meet">

<g transform="translate(0.000000,512.000000) scale(0.100000,-0.100000)"
fill="#000000" stroke="none">
<path d="M2474 4961 c-43 -26 -60 -52 -154 -241 -45 -91 -84 -166 -85 -168 -2
-2 -90 -16 -197 -32 -209 -30 -252 -44 -286 -94 -40 -58 -45 -94 -25 -171 3
-11 73 -89 157 -173 l151 -153 -34 -198 c-22 -130 -31 -212 -27 -235 8 -44 59
-104 103 -122 68 -29 101 -20 298 82 l185 95 185 -95 c154 -80 193 -96 231
-96 55 0 91 18 132 64 47 54 49 84 11 307 l-34 198 152 153 c104 105 154 162
158 183 4 17 9 37 11 45 12 46 -42 140 -96 165 -19 10 -122 30 -228 45 -107
16 -195 30 -197 32 -1 2 -40 77 -85 168 -91 183 -117 223 -160 245 -41 21
-128 19 -166 -4z"/>
<path d="M1882 2839 c-103 -18 -195 -87 -243 -184 l-24 -50 -3 -1238 -2 -1237
950 0 950 0 0 1223 c0 1351 4 1265 -64 1357 -37 51 -95 94 -158 118 -38 15
-115 17 -698 19 -360 0 -679 -3 -708 -8z m789 -662 c68 -45 69 -53 69 -425 0
-369 -2 -380 -64 -425 -43 -31 -129 -31 -172 0 -56 40 -64 72 -64 258 0 155
-1 167 -17 160 -80 -32 -131 -24 -183 29 -43 46 -53 122 -21 173 18 29 214
185 292 232 47 29 116 28 160 -2z"/>
<path d="M195 2061 c-69 -32 -137 -100 -168 -169 -22 -47 -22 -50 -22 -777 l0
-730 26 -55 c50 -106 146 -174 267 -191 37 -5 278 -8 537 -7 l470 3 3 978 2
977 -527 0 -528 0 -60 -29z"/>
<path d="M3815 1488 c-3 -7 -4 -314 -3 -683 l3 -670 470 -3 c259 -1 500 2 537
7 121 17 217 85 267 191 l26 55 0 430 0 430 -26 55 c-49 104 -140 171 -255
190 -93 15 -1013 13 -1019 -2z"/>
</g>
</svg>
